<svg version="1.1" id="Layer_1" xmlns="http://www.w3.org/2000/svg" xmlns:xlink="http://www.w3.org/1999/xlink" x="0px" y="0px"
	 width="100%" viewBox="0 0 845 66" enable-background="new 0 0 845 66" xml:space="preserve">
<path fill="#000000" opacity="1.000000" stroke="none" 
	d="
M813.000000,67.000000 
	C542.333313,67.000000 271.666656,67.000000 1.000000,67.000000 
	C1.000000,61.937134 1.000000,56.939766 1.468137,51.472031 
	C7.210464,51.001663 12.484653,51.001663 17.763195,51.001663 
	C17.763195,48.771416 17.763195,47.026638 17.763195,45.314285 
	C16.009932,45.038315 14.493896,44.799686 13.236765,44.601810 
	C13.236765,38.577206 13.236765,33.016911 13.236765,26.529158 
	C18.435894,32.989601 23.085529,38.767239 27.950945,44.813011 
	C26.439764,44.963970 25.350273,45.072807 24.158882,45.191822 
	C24.158882,47.062420 24.158882,48.835163 24.158882,50.671188 
	C30.859085,50.671188 37.393635,50.671188 43.860043,50.671188 
	C43.860043,48.699615 43.860043,47.059639 43.860043,45.938713 
	C33.282955,42.426708 30.280857,31.830004 23.168520,25.794430 
	C26.545547,21.908859 29.486595,18.076818 32.901756,14.728332 
	C35.983185,11.707062 39.583447,9.214956 42.954895,6.489481 
	C43.303265,6.804509 43.651630,7.119537 44.000000,7.434565 
	C44.000000,5.289710 44.000000,3.144855 44.000000,1.000000 
	C44.750000,1.000000 45.500000,1.000000 46.971470,1.356884 
	C47.413292,3.716988 47.133648,5.720208 46.839230,7.829255 
	C48.948620,7.967162 50.357502,8.059272 51.752670,8.150484 
	C51.752670,20.619610 51.752670,32.699379 51.752670,44.858353 
	C50.092354,44.965012 48.671387,45.056297 47.240768,45.148201 
	C47.240768,47.233334 47.240768,48.968269 47.240768,50.766518 
	C52.570641,50.766518 57.654766,50.766518 62.767502,50.766518 
	C62.767502,48.776913 62.767502,47.034222 62.767502,45.317528 
	C61.016479,45.040791 59.497719,44.800758 58.196777,44.595154 
	C58.196777,33.278114 58.196777,22.412867 58.196777,10.267647 
	C63.633953,24.957638 68.630516,38.457180 74.242279,53.618870 
	C75.903625,50.906273 77.244087,49.321476 77.935104,47.491447 
	C82.462112,35.502499 86.848724,23.460539 91.798210,10.033315 
	C91.798210,22.552860 91.798210,33.551331 91.798210,44.743530 
	C90.161407,44.950439 88.622375,45.144993 86.934494,45.358364 
	C87.043510,47.405685 87.135689,49.136574 87.218925,50.699799 
	C93.084938,50.699799 98.505280,50.699799 103.863121,50.699799 
	C103.863121,48.762974 103.863121,47.129311 103.863121,45.199066 
	C102.224091,45.057163 100.692169,44.924534 99.278534,44.802147 
	C99.278534,32.290810 99.278534,20.210350 99.278534,8.156068 
	C100.978455,8.008994 102.400406,7.885970 104.000000,7.747575 
	C104.000000,5.281105 104.000000,3.140552 104.000000,1.000000 
	C111.354256,1.000000 118.708504,1.000000 126.878159,1.356466 
	C127.415634,3.717927 127.137703,5.722922 126.853416,7.773792 
	C128.959076,7.961034 130.368881,8.086398 131.742035,8.208504 
	C131.742035,20.638237 131.742035,32.728542 131.742035,44.802593 
	C130.061020,44.963802 128.637604,45.100307 127.265549,45.231888 
	C127.265549,47.270355 127.265549,49.004101 127.265549,50.741650 
	C132.956573,50.741650 138.377777,50.741650 143.736267,50.741650 
	C143.736267,48.729031 143.736267,46.979027 143.736267,45.111683 
	C142.069168,45.026863 140.658813,44.955105 139.271362,44.884514 
	C139.271362,39.403236 139.271362,34.328800 139.271362,28.866774 
	C144.958832,28.866774 150.381149,28.866774 155.728546,28.866774 
	C155.728546,26.730076 155.728546,24.992758 155.728546,22.851303 
	C150.051727,22.851303 144.634583,22.851303 139.287079,22.851303 
	C139.287079,17.696917 139.287079,12.959967 139.287079,8.286797 
	C145.988297,8.286797 152.398148,8.286797 159.183899,8.286797 
	C159.183899,11.324423 159.183899,14.077574 159.183899,17.048307 
	C161.317368,16.952744 163.054413,16.874937 165.000000,16.787788 
	C165.000000,11.279546 165.000000,6.139773 165.000000,1.000000 
	C177.687561,1.000000 190.375122,1.000000 203.873001,1.346274 
	C204.456314,2.450920 204.096558,3.197164 204.025986,3.969822 
	C203.762451,6.854877 203.915192,9.109682 207.986130,9.108951 
	C212.026703,9.108224 212.201553,6.911256 212.008224,3.990184 
	C211.942535,2.997622 211.999222,1.996961 212.000000,1.000000 
	C236.020889,1.000000 260.041779,1.000000 284.877716,1.356964 
	C285.413239,3.718515 285.133728,5.723102 284.847626,7.775214 
	C286.954224,7.963356 288.366608,8.089495 289.707764,8.209273 
	C289.707764,12.216436 289.707764,15.881577 289.707764,19.746605 
	C281.589111,13.681065 271.246735,15.021626 265.222992,21.971224 
	C261.063782,26.769699 261.263428,42.308559 265.023407,46.676292 
	C270.491241,53.027905 281.891205,54.198860 288.592377,49.176128 
	C293.150299,52.376774 297.674713,50.391842 301.703674,51.034332 
	C301.703674,48.656628 301.703674,46.903412 301.703674,45.179375 
	C299.992523,45.014458 298.588287,44.879120 297.000000,44.726048 
	C297.000000,29.932064 297.000000,15.466032 297.000000,1.000000 
	C325.687561,1.000000 354.375122,1.000000 383.872986,1.346275 
	C384.456268,2.450931 384.096558,3.197186 384.025970,3.969854 
	C383.762451,6.854935 383.915253,9.109694 387.986176,9.108952 
	C392.026764,9.108214 392.201508,6.911191 392.008179,3.990158 
	C391.942505,2.997606 391.999207,1.996952 392.000000,1.000000 
	C407.354218,1.000000 422.708466,1.000000 438.877899,1.356758 
	C439.413544,3.716356 439.134003,5.719196 438.838989,7.832648 
	C440.948090,7.967376 442.356659,8.057356 443.757507,8.146842 
	C443.757507,20.614122 443.757507,32.691216 443.757507,44.875019 
	C442.103302,44.969433 440.683319,45.050476 439.234955,45.133141 
	C439.234955,47.228397 439.234955,48.964088 439.234955,50.772312 
	C444.889557,50.772312 450.305389,50.772312 455.774292,50.772312 
	C455.774292,48.796040 455.774292,47.051746 455.774292,45.321472 
	C454.030182,45.046310 452.508698,44.806267 451.001434,44.568474 
	C451.001434,39.674332 450.977570,35.182278 451.008301,30.690598 
	C451.037842,26.370802 456.705475,21.859669 460.752625,23.072577 
	C461.639923,23.338484 462.751923,24.436220 462.901672,25.299810 
	C463.460663,28.523542 463.853790,31.803257 463.955048,35.072929 
	C464.117676,40.322529 463.998596,45.580856 463.998596,50.713181 
	C468.370300,50.713181 472.122345,50.713181 475.708649,50.713181 
	C475.708649,48.668362 475.708649,46.916553 475.708649,45.201729 
	C474.008728,45.026863 472.602234,44.882187 471.000671,44.717442 
	C471.000671,37.449471 471.040894,30.479752 470.986847,23.510765 
	C470.949066,18.637524 468.263428,15.711500 463.374420,16.112194 
	C459.189026,16.455221 455.083923,17.777954 451.000000,18.655210 
	C451.000000,13.291753 451.000000,7.145876 451.000000,1.000000 
	C482.020905,1.000000 513.041809,1.000000 544.835938,1.287424 
	C544.999939,2.062820 544.457764,2.692179 543.771484,3.017949 
	C529.001343,10.029381 528.021362,30.739998 534.418030,41.041538 
	C540.192261,50.340725 548.633667,52.334705 558.842834,52.194298 
	C567.021912,52.081810 576.384705,45.397148 579.445190,38.164768 
	C581.213928,33.985161 578.434204,32.778259 575.827332,31.462391 
	C572.650085,29.858593 572.554321,32.603390 571.744812,34.577312 
	C567.784912,44.232841 554.679077,48.477627 546.443665,42.345676 
	C540.084106,37.610535 538.573669,31.589092 538.944458,24.324738 
	C539.310364,17.154860 543.403931,11.075925 549.973022,8.533602 
	C555.838745,6.263504 566.227478,8.383177 569.760620,13.547465 
	C572.374451,17.368069 575.216980,17.240126 579.000000,16.764435 
	C579.000000,11.280905 579.000000,6.140452 579.000000,1.000000 
	C620.020874,1.000000 661.041809,1.000000 702.877930,1.356762 
	C703.413513,3.716357 703.133911,5.719190 702.838928,7.832630 
	C704.949890,7.967487 706.358887,8.057502 707.757568,8.146856 
	C707.757568,20.614090 707.757568,32.691189 707.757568,44.875099 
	C706.103333,44.969448 704.683350,45.050438 703.234924,45.133045 
	C703.234924,47.228378 703.234924,48.964073 703.234924,50.772335 
	C708.889526,50.772335 714.305359,50.772335 719.774292,50.772335 
	C719.774292,48.796078 719.774292,47.051781 719.774292,45.321484 
	C718.030518,45.046375 716.508850,44.806305 715.001343,44.568466 
	C715.001343,43.002266 715.001343,41.838360 715.001343,40.674454 
	C715.001343,37.346493 714.978149,34.018333 715.007080,30.690624 
	C715.044739,26.370853 720.705505,21.859682 724.752625,23.072611 
	C725.639893,23.338537 726.751892,24.436264 726.901611,25.299843 
	C727.460693,28.523558 727.853760,31.803268 727.955017,35.072937 
	C728.117676,40.322544 727.998657,45.580868 727.998657,50.713165 
	C732.370300,50.713165 736.122375,50.713165 739.708618,50.713165 
	C739.708618,48.659317 739.708618,46.912846 739.708618,45.201694 
	C738.004944,45.026451 736.600586,44.882000 735.000610,44.717422 
	C735.000610,37.449387 735.040833,30.479662 734.986755,23.510668 
	C734.948975,18.637440 732.263428,15.711481 727.374329,16.112188 
	C723.188904,16.455223 719.083801,17.777975 715.000000,18.655214 
	C715.000000,13.291761 715.000000,7.145881 715.000000,1.000000 
	C725.687561,1.000000 736.375122,1.000000 747.872986,1.346256 
	C748.456299,2.450892 748.096619,3.197149 748.025940,3.969819 
	C747.762390,6.854884 747.915222,9.109657 751.986084,9.108946 
	C756.026611,9.108240 756.201477,6.911340 756.008179,3.990256 
	C755.942505,2.997671 755.999207,1.996984 756.000000,1.000000 
	C786.000061,1.000000 816.000122,1.000000 846.000000,1.000000 
	C846.000000,6.099535 846.000000,11.078569 845.538757,16.527359 
	C841.300232,18.031553 836.561584,14.774191 833.109253,19.413750 
	C828.648376,15.429977 822.773926,14.756554 817.019348,16.626759 
	C805.185913,20.472530 803.317566,34.421677 808.131042,44.548351 
	C810.150085,48.795971 813.640991,51.488876 818.312622,51.927738 
	C823.208618,52.387676 828.199402,52.459827 832.607666,49.420982 
	C832.890686,49.815914 833.011414,49.968407 833.097900,50.529373 
	C832.922363,56.548065 830.547485,59.773991 825.829651,59.914341 
	C822.788513,60.004818 819.348022,60.010788 816.757263,58.714317 
	C813.049011,56.858627 811.972900,59.562088 810.531677,61.388409 
	C810.195129,61.814896 811.950806,63.822357 812.634155,65.158478 
	C812.908325,65.694473 812.886902,66.381638 813.000000,67.000000 
M321.637024,36.003883 
	C328.404633,36.003883 335.172211,36.003883 341.871674,36.003883 
	C342.838867,23.668488 335.391815,17.324785 328.411102,16.082344 
	C318.639862,14.343228 309.971863,19.207281 307.285797,27.362398 
	C304.376068,36.196640 308.335480,46.997269 316.015564,50.430962 
	C323.047821,53.575008 337.834381,53.374454 341.952911,43.780056 
	C337.805542,40.235859 337.796356,40.220928 333.289185,42.991879 
	C325.762787,47.618999 315.043762,44.774731 315.250885,36.003883 
	C317.053680,36.003883 318.869476,36.003883 321.637024,36.003883 
M236.960571,45.001747 
	C232.301941,44.028122 229.665482,41.221817 228.853409,35.965633 
	C238.071915,35.965633 246.954376,35.965633 255.761963,35.965633 
	C257.111023,24.737549 250.087509,17.591434 242.637421,16.082520 
	C233.009949,14.132607 223.748962,19.328270 221.225143,27.561136 
	C218.508087,36.424400 222.544708,47.319031 230.122986,50.517078 
	C237.353729,53.568474 251.864441,53.372486 255.951019,43.705799 
	C251.743851,40.261681 251.903961,40.593651 247.178284,42.872906 
	C244.366776,44.228935 240.956665,44.343857 236.960571,45.001747 
M626.999146,38.011604 
	C625.805237,50.434746 632.146118,52.987324 641.580444,51.878677 
	C644.132446,51.578789 646.510315,49.796532 647.984314,49.135727 
	C651.866638,52.441772 656.015564,50.340904 659.769775,50.932129 
	C659.769775,48.781792 659.769775,47.036648 659.769775,45.316826 
	C658.019470,45.040070 656.500244,44.799843 655.002686,44.563053 
	C655.002686,37.820053 654.943237,31.494520 655.024414,25.170792 
	C655.074951,21.234499 653.041504,18.686729 649.803223,16.985672 
	C644.098267,13.988924 633.190674,15.954149 628.802246,20.751745 
	C627.891968,21.746899 627.330139,23.060804 625.819519,25.501022 
	C629.606384,25.501022 632.589417,26.398094 634.505005,25.347982 
	C643.484619,20.425583 646.650574,21.808496 647.539001,31.733917 
	C638.590881,27.632233 631.087891,29.619888 626.999146,38.011604 
M586.000549,38.940132 
	C589.297363,52.381199 603.580627,55.079391 612.929260,49.918983 
	C619.717712,46.171761 621.455811,39.831902 621.144958,32.244972 
	C620.835205,24.681591 617.255005,19.565094 610.747009,17.114809 
	C604.352905,14.707397 597.716309,14.847228 591.787537,19.613119 
	C585.617371,24.572971 585.664734,31.204405 586.000549,38.940132 
M489.750946,15.997580 
	C484.810028,15.799399 481.342316,18.371220 480.151062,22.780918 
	C478.499878,28.892988 481.335663,34.069626 486.756958,35.816242 
	C490.113464,36.897644 493.730896,37.151733 497.129089,38.131310 
	C498.254700,38.455788 499.631287,39.769054 499.850189,40.842831 
	C500.058319,41.863949 499.219849,43.657730 498.291779,44.249290 
	C495.143616,46.255947 489.195099,45.334980 487.757538,42.164001 
	C485.921692,38.114494 483.196777,39.007004 480.239624,39.149357 
	C480.239624,43.359024 480.239624,47.133415 480.239624,50.671284 
	C485.911194,51.129215 491.312317,51.771034 496.728638,51.948311 
	C502.900360,52.150307 507.443573,48.793610 508.000153,44.109871 
	C508.917328,36.392078 506.772614,32.964806 499.614655,30.965231 
	C496.526581,30.102589 493.331268,29.598780 490.290253,28.607782 
	C489.339844,28.298059 488.149078,26.940186 488.129700,26.039305 
	C488.108459,25.050716 489.446899,23.110518 489.961029,23.185005 
	C492.925140,23.614485 495.911255,24.277973 498.710358,25.336859 
	C500.910706,26.169216 502.851471,27.687891 505.680420,29.357952 
	C505.680420,24.156502 505.680420,20.613741 505.680420,17.402559 
	C500.423676,16.911716 495.528229,16.454611 489.750946,15.997580 
M780.220703,50.997032 
	C781.034485,49.263554 781.848328,47.530071 782.840210,45.417294 
	C780.132141,45.047962 778.603271,44.839447 777.000610,44.620876 
	C777.000610,39.950855 776.992371,35.629719 777.002808,31.308628 
	C777.014465,26.514677 780.013977,23.420797 784.556030,22.950865 
	C790.745117,22.310524 788.986694,27.458557 789.858643,30.336660 
	C790.551819,32.624760 789.999268,35.290295 789.999390,37.788261 
	C789.999634,42.073284 789.999451,46.358307 789.999451,50.791679 
	C794.174438,50.791679 797.919556,50.791679 801.794189,50.791679 
	C801.794189,48.838734 801.794189,47.096222 801.794189,45.322746 
	C800.077515,45.055191 798.551331,44.817329 796.999939,44.575531 
	C796.999939,37.389164 797.027039,30.565670 796.990662,23.742516 
	C796.965759,19.079950 793.994019,15.714212 789.497925,16.109703 
	C785.281921,16.480562 781.146545,17.767467 777.517212,18.536524 
	C773.829163,15.416319 769.342468,17.671560 765.220215,17.046049 
	C765.220215,19.193514 765.220215,20.935389 765.220215,22.674900 
	C766.957581,22.949577 768.480347,23.190338 769.789673,23.397345 
	C769.789673,30.776705 769.789673,37.730324 769.789673,44.683823 
	C768.056885,44.949749 766.527649,45.184444 765.196411,45.388741 
	C765.196411,47.405273 765.196411,49.018974 765.196411,51.000374 
	C770.013184,51.000374 774.643127,51.000374 780.220703,50.997032 
M425.252228,51.192238 
	C427.694183,49.338001 430.435974,47.751972 432.442841,45.508556 
	C433.352051,44.492172 433.566254,41.454998 432.755829,40.590195 
	C431.060333,38.780884 428.748962,38.170269 426.514740,40.861687 
	C425.051666,42.624172 422.831970,44.518757 420.718231,44.844963 
	C412.943756,46.044777 408.954712,42.064678 408.937286,33.821259 
	C408.924957,27.969877 411.397217,23.820795 415.377777,23.012386 
	C421.180237,21.833965 424.268311,23.695671 426.744904,29.824284 
	C428.715820,29.824284 430.662781,29.824284 432.654388,29.824284 
	C432.654388,25.446077 432.654388,21.256342 432.654388,16.936007 
	C429.458160,16.936007 426.418091,17.593908 423.808289,16.813263 
	C415.818237,14.423277 407.768066,16.722979 403.297089,23.195778 
	C399.497406,28.696701 400.833069,41.993336 404.634735,46.412392 
	C410.361450,53.069122 417.408020,52.177464 425.252228,51.192238 
M697.961975,43.200253 
	C696.273438,38.449055 693.899841,37.897869 690.343384,41.118126 
	C688.618042,42.680302 686.575500,44.399429 684.415771,44.883446 
	C676.604431,46.634003 672.114197,40.107399 672.899597,32.564247 
	C673.410156,27.660843 675.851135,23.648333 679.598206,23.008362 
	C685.602539,21.982868 688.580566,23.830938 690.482605,29.756538 
	C692.562988,29.756538 694.643372,29.756538 696.795471,29.756538 
	C696.795471,25.412758 696.795471,21.318581 696.795471,17.653366 
	C692.669861,17.076506 688.827515,16.249054 684.957397,16.088165 
	C681.749939,15.954825 678.211426,15.878140 675.341980,17.052692 
	C667.716736,20.173899 664.820496,26.157724 664.792358,34.560852 
	C664.764587,42.856785 670.582703,49.910038 676.216370,51.691006 
	C684.855469,54.422081 692.880066,51.425591 697.961975,43.200253 
M172.997696,32.527470 
	C172.997696,36.631454 172.997696,40.735435 172.997696,44.778755 
	C171.047684,44.967628 169.627487,45.105186 168.258316,45.237801 
	C168.258316,47.270683 168.258316,49.001156 168.258316,50.764267 
	C174.593124,50.764267 180.664932,50.764267 186.769363,50.764267 
	C186.769363,48.778759 186.769363,47.042488 186.769363,44.926964 
	C184.466034,44.926964 182.389999,44.926964 179.817078,44.926964 
	C180.252243,39.637848 180.219498,34.678337 181.207413,29.931238 
	C181.854904,26.819881 183.790146,24.032869 187.944534,23.944284 
	C194.564697,23.803120 194.828903,23.264570 193.396210,16.201080 
	C187.661774,15.219990 182.810669,16.560858 179.239075,22.605639 
	C179.026337,20.075096 178.901108,18.585669 178.793747,17.308619 
	C174.900467,17.308619 171.487946,17.308619 168.138367,17.308619 
	C168.138367,19.249987 168.138367,20.879484 168.138367,22.805016 
	C169.762848,22.943226 171.301941,23.074169 172.997696,23.218443 
	C172.997696,26.260777 172.997696,28.902531 172.997696,32.527470 
M348.691620,45.061352 
	C348.396149,46.895618 348.100708,48.729885 347.765656,50.809967 
	C354.468872,50.809967 360.542694,50.809967 366.642700,50.809967 
	C366.642700,48.753864 366.642700,46.904335 366.642700,44.679234 
	C364.203064,44.679234 362.128540,44.679234 359.804382,44.679234 
	C360.234253,39.525951 360.213074,34.694012 361.171387,30.064833 
	C361.818726,26.937792 363.656372,24.086939 367.809784,23.952549 
	C374.612366,23.732443 374.657104,23.536287 373.476501,16.216722 
	C367.768280,15.252371 362.896759,16.480747 359.189117,22.666391 
	C359.039551,20.110741 358.953186,18.634544 358.873444,17.271973 
	C355.007874,17.271973 351.587402,17.271973 348.270142,17.271973 
	C348.270142,19.297882 348.270142,21.044991 348.270142,22.866827 
	C349.944305,22.969616 351.351685,23.056025 352.996948,23.157038 
	C352.996948,29.818769 352.851776,36.114784 353.060852,42.399014 
	C353.159119,45.352402 351.472717,45.080303 348.691620,45.061352 
M212.000000,41.301144 
	C212.000000,33.242844 212.000000,25.184542 212.000000,17.294548 
	C207.601273,17.294548 203.855316,17.294548 199.949280,17.294548 
	C200.040039,19.350206 200.117371,21.102045 200.192001,22.792864 
	C201.995911,22.974382 203.399475,23.115618 204.753784,23.251894 
	C204.753784,30.650347 204.753784,37.719318 204.753784,44.866138 
	C203.095261,44.968426 201.677292,45.055878 200.233688,45.144909 
	C200.233688,47.224194 200.233688,48.955517 200.233688,50.785522 
	C205.873260,50.785522 211.277512,50.785522 216.793503,50.785522 
	C216.793503,48.831112 216.793503,47.092880 216.793503,45.354649 
	C216.467789,45.605042 216.142090,45.855438 215.816376,46.105831 
	C214.544342,44.821842 213.272293,43.537853 212.000000,41.301144 
M756.366821,51.000000 
	C757.816650,51.000000 759.266479,51.000000 760.780151,51.000000 
	C760.780151,48.804279 760.780151,47.064476 760.780151,45.323154 
	C759.049805,45.052223 757.530273,44.814285 755.685913,44.525497 
	C755.685913,35.154564 755.685913,26.112446 755.685913,17.324078 
	C751.551453,17.324078 747.809875,17.324078 744.150696,17.324078 
	C744.150696,19.275841 744.150696,20.902454 744.150696,22.806112 
	C745.797485,22.956705 747.325439,23.096430 748.732788,23.225124 
	C748.732788,30.711660 748.732788,37.780525 748.732788,44.818218 
	C747.044861,44.975956 745.625061,45.108639 744.261841,45.236034 
	C744.261841,47.283890 744.261841,49.014305 744.261841,51.000000 
	C748.146484,51.000000 751.772827,51.000000 756.366821,51.000000 
M385.000000,30.567554 
	C385.000000,35.329636 385.000000,40.091717 385.000000,44.799633 
	C383.038971,44.979042 381.621063,45.108768 380.263184,45.232998 
	C380.263184,47.277473 380.263184,49.005962 380.263184,50.764290 
	C385.932343,50.764290 391.335571,50.764290 396.769928,50.764290 
	C396.769928,48.784382 396.769928,47.043259 396.769928,45.319672 
	C395.026123,45.046467 393.508484,44.808693 391.666931,44.520172 
	C391.666931,35.132797 391.666931,26.092409 391.666931,17.337257 
	C387.536194,17.337257 383.800446,17.337257 380.159607,17.337257 
	C380.159607,19.299986 380.159607,20.924212 380.159607,22.776299 
	C381.806671,22.949305 383.339478,23.110308 385.000000,23.284725 
	C385.000000,25.637308 385.000000,27.614477 385.000000,30.567554 
z"/>
<path fill="#FBF3E3" opacity="1.000000" stroke="none" 
	d="
M103.532394,1.000000 
	C104.000000,3.140552 104.000000,5.281105 104.000000,7.747575 
	C102.400406,7.885970 100.978455,8.008994 99.278534,8.156068 
	C99.278534,20.210350 99.278534,32.290810 99.278534,44.802147 
	C100.692169,44.924534 102.224091,45.057163 103.863121,45.199066 
	C103.863121,47.129311 103.863121,48.762974 103.863121,50.699799 
	C98.505280,50.699799 93.084938,50.699799 87.218925,50.699799 
	C87.135689,49.136574 87.043510,47.405685 86.934494,45.358364 
	C88.622375,45.144993 90.161407,44.950439 91.798210,44.743530 
	C91.798210,33.551331 91.798210,22.552860 91.798210,10.033315 
	C86.848724,23.460539 82.462112,35.502499 77.935104,47.491447 
	C77.244087,49.321476 75.903625,50.906273 74.242279,53.618870 
	C68.630516,38.457180 63.633953,24.957638 58.196777,10.267647 
	C58.196777,22.412867 58.196777,33.278114 58.196777,44.595154 
	C59.497719,44.800758 61.016479,45.040791 62.767502,45.317528 
	C62.767502,47.034222 62.767502,48.776913 62.767502,50.766518 
	C57.654766,50.766518 52.570641,50.766518 47.240768,50.766518 
	C47.240768,48.968269 47.240768,47.233334 47.240768,45.148201 
	C48.671387,45.056297 50.092354,44.965012 51.752670,44.858353 
	C51.752670,32.699379 51.752670,20.619610 51.752670,8.150484 
	C50.357502,8.059272 48.948620,7.967162 46.839230,7.829255 
	C47.133648,5.720208 47.413292,3.716988 47.346470,1.356884 
	C52.022091,1.000000 57.044186,1.000000 62.230835,1.302722 
	C64.926712,7.842589 67.506981,14.060465 69.972527,20.323500 
	C71.681259,24.664066 73.231926,29.066858 75.191536,34.354805 
	C76.837112,29.916819 78.114639,26.622292 79.283073,23.289516 
	C81.884346,15.869833 84.431053,8.431019 87.000000,1.000001 
	C92.354927,1.000000 97.709862,1.000000 103.532394,1.000000 
z"/>
<path fill="#FBF3E3" opacity="1.000000" stroke="none" 
	d="
M43.531597,1.000000 
	C44.000000,3.144855 44.000000,5.289710 44.000000,7.434565 
	C43.651630,7.119537 43.303265,6.804509 42.954895,6.489481 
	C39.583447,9.214956 35.983185,11.707062 32.901756,14.728332 
	C29.486595,18.076818 26.545547,21.908859 23.168520,25.794430 
	C30.280857,31.830004 33.282955,42.426708 43.860043,45.938713 
	C43.860043,47.059639 43.860043,48.699615 43.860043,50.671188 
	C37.393635,50.671188 30.859085,50.671188 24.158882,50.671188 
	C24.158882,48.835163 24.158882,47.062420 24.158882,45.191822 
	C25.350273,45.072807 26.439764,44.963970 27.950945,44.813011 
	C23.085529,38.767239 18.435894,32.989601 13.236765,26.529158 
	C13.236765,33.016911 13.236765,38.577206 13.236765,44.601810 
	C14.493896,44.799686 16.009932,45.038315 17.763195,45.314285 
	C17.763195,47.026638 17.763195,48.771416 17.763195,51.001663 
	C12.484653,51.001663 7.210464,51.001663 1.468137,51.000832 
	C1.000000,49.285641 1.000000,47.571285 1.449625,45.427628 
	C3.164391,44.998333 4.429531,44.998333 5.731274,44.998333 
	C5.731274,32.429546 5.731274,20.260443 5.731274,8.000000 
	C3.976279,8.000000 2.488139,8.000000 1.000000,8.000000 
	C1.000000,5.710444 1.000000,3.420889 1.000000,1.000000 
	C6.352559,1.000000 11.705826,1.000000 17.183039,1.356828 
	C17.591309,3.705704 17.875631,5.697752 18.220581,8.114561 
	C16.090240,8.114561 14.694377,8.114561 13.205359,8.114561 
	C13.205359,13.497188 13.205359,18.517179 13.205359,21.532097 
	C17.661669,17.995661 23.110384,13.671673 28.559099,9.347685 
	C28.249830,8.953168 27.940559,8.558650 27.631289,8.164133 
	C26.462868,8.040081 25.294447,7.916029 24.000000,7.778597 
	C24.000000,5.277688 24.000000,3.138844 24.000000,1.000000 
	C30.354399,1.000000 36.708797,1.000000 43.531597,1.000000 
z"/>
<path fill="#FAF2E3" opacity="1.000000" stroke="none" 
	d="
M832.445374,49.178524 
	C828.199402,52.459827 823.208618,52.387676 818.312622,51.927738 
	C813.640991,51.488876 810.150085,48.795971 808.131042,44.548351 
	C803.317566,34.421677 805.185913,20.472530 817.019348,16.626759 
	C822.773926,14.756554 828.648376,15.429977 833.109253,19.413750 
	C836.561584,14.774191 841.300232,18.031553 845.538757,16.998558 
	C846.000000,18.714357 846.000000,20.428717 845.550537,22.572987 
	C843.835510,23.002899 842.570068,23.002899 841.002563,23.002899 
	C841.002563,32.819721 840.631897,42.258049 841.132446,51.649944 
	C841.468201,57.950630 838.701172,61.853344 833.905090,65.063629 
	C833.398376,65.402786 833.292114,66.340179 833.000000,67.000008 
	C826.645569,67.000000 820.291199,67.000000 813.468384,67.000000 
	C812.886902,66.381638 812.908325,65.694473 812.634155,65.158478 
	C811.950806,63.822357 810.195129,61.814896 810.531677,61.388409 
	C811.972900,59.562088 813.049011,56.858627 816.757263,58.714317 
	C819.348022,60.010788 822.788513,60.004818 825.829651,59.914341 
	C830.547485,59.773991 832.922363,56.548065 833.371460,50.421436 
	C833.627502,49.362118 833.575806,48.819214 833.524048,48.276299 
	C833.164490,48.577026 832.804932,48.877769 832.445374,49.178524 
M817.609619,24.923178 
	C812.799561,28.501863 813.204041,33.841091 814.441467,38.385933 
	C815.159546,41.023457 818.611938,43.901543 821.418945,44.761246 
	C825.961182,46.152393 829.998779,44.209507 832.158875,39.405071 
	C834.381653,34.461273 833.748169,29.261065 830.265930,25.726954 
	C826.598267,22.004543 822.481995,22.230856 817.609619,24.923178 
z"/>
<path fill="#FAF2E2" opacity="1.000000" stroke="none" 
	d="
M578.571533,1.000000 
	C579.000000,6.140452 579.000000,11.280905 579.000000,16.764435 
	C575.216980,17.240126 572.374451,17.368069 569.760620,13.547465 
	C566.227478,8.383177 555.838745,6.263504 549.973022,8.533602 
	C543.403931,11.075925 539.310364,17.154860 538.944458,24.324738 
	C538.573669,31.589092 540.084106,37.610535 546.443665,42.345676 
	C554.679077,48.477627 567.784912,44.232841 571.744812,34.577312 
	C572.554321,32.603390 572.650085,29.858593 575.827332,31.462391 
	C578.434204,32.778259 581.213928,33.985161 579.445190,38.164768 
	C576.384705,45.397148 567.021912,52.081810 558.842834,52.194298 
	C548.633667,52.334705 540.192261,50.340725 534.418030,41.041538 
	C528.021362,30.739998 529.001343,10.029381 543.771484,3.017949 
	C544.457764,2.692179 544.999939,2.062820 545.304565,1.287424 
	C552.354248,1.000000 559.708496,1.000000 567.215088,1.286402 
	C569.027222,2.701611 570.687012,3.830418 573.000000,5.403438 
	C573.000000,3.453761 573.000000,2.226881 573.000000,1.000000 
	C574.714355,1.000000 576.428711,1.000000 578.571533,1.000000 
z"/>
<path fill="#FBF3E3" opacity="1.000000" stroke="none" 
	d="
M296.539368,1.000000 
	C297.000000,15.466032 297.000000,29.932064 297.000000,44.726048 
	C298.588287,44.879120 299.992523,45.014458 301.703674,45.179375 
	C301.703674,46.903412 301.703674,48.656628 301.703674,51.034332 
	C297.674713,50.391842 293.150299,52.376774 288.592377,49.176128 
	C281.891205,54.198860 270.491241,53.027905 265.023407,46.676292 
	C261.263428,42.308559 261.063782,26.769699 265.222992,21.971224 
	C271.246735,15.021626 281.589111,13.681065 289.707764,19.746605 
	C289.707764,15.881577 289.707764,12.216436 289.707764,8.209273 
	C288.366608,8.089495 286.954224,7.963356 284.847626,7.775214 
	C285.133728,5.723102 285.413239,3.718515 285.346375,1.356964 
	C288.692902,1.000000 292.385834,1.000000 296.539368,1.000000 
M273.589386,43.102005 
	C274.833435,43.735016 276.017761,44.717041 277.331665,44.941921 
	C283.757690,46.041798 290.139008,42.223595 289.076660,31.762234 
	C288.660492,27.663982 286.573822,24.981871 283.074982,23.614775 
	C279.608185,22.260212 276.094818,22.324080 273.090637,25.348869 
	C268.728912,29.740549 268.583588,37.134148 273.589386,43.102005 
z"/>
<path fill="#FBF3E3" opacity="1.000000" stroke="none" 
	d="
M714.539368,1.000000 
	C715.000000,7.145881 715.000000,13.291761 715.000000,18.655214 
	C719.083801,17.777975 723.188904,16.455223 727.374329,16.112188 
	C732.263428,15.711481 734.948975,18.637440 734.986755,23.510668 
	C735.040833,30.479662 735.000610,37.449387 735.000610,44.717422 
	C736.600586,44.882000 738.004944,45.026451 739.708618,45.201694 
	C739.708618,46.912846 739.708618,48.659317 739.708618,50.713165 
	C736.122375,50.713165 732.370300,50.713165 727.998657,50.713165 
	C727.998657,45.580868 728.117676,40.322544 727.955017,35.072937 
	C727.853760,31.803268 727.460693,28.523558 726.901611,25.299843 
	C726.751892,24.436264 725.639893,23.338537 724.752625,23.072611 
	C720.705505,21.859682 715.044739,26.370853 715.007080,30.690624 
	C714.978149,34.018333 715.001343,37.346493 715.001343,40.674454 
	C715.001343,41.838360 715.001343,43.002266 715.001343,44.568466 
	C716.508850,44.806305 718.030518,45.046375 719.774292,45.321484 
	C719.774292,47.051781 719.774292,48.796078 719.774292,50.772335 
	C714.305359,50.772335 708.889526,50.772335 703.234924,50.772335 
	C703.234924,48.964073 703.234924,47.228378 703.234924,45.133045 
	C704.683350,45.050438 706.103333,44.969448 707.757568,44.875099 
	C707.757568,32.691189 707.757568,20.614090 707.757568,8.146856 
	C706.358887,8.057502 704.949890,7.967487 702.838928,7.832630 
	C703.133911,5.719190 703.413513,3.716357 703.346558,1.356762 
	C706.692932,1.000000 710.385803,1.000000 714.539368,1.000000 
z"/>
<path fill="#FBF3E3" opacity="1.000000" stroke="none" 
	d="
M450.539368,1.000000 
	C451.000000,7.145876 451.000000,13.291753 451.000000,18.655210 
	C455.083923,17.777954 459.189026,16.455221 463.374420,16.112194 
	C468.263428,15.711500 470.949066,18.637524 470.986847,23.510765 
	C471.040894,30.479752 471.000671,37.449471 471.000671,44.717442 
	C472.602234,44.882187 474.008728,45.026863 475.708649,45.201729 
	C475.708649,46.916553 475.708649,48.668362 475.708649,50.713181 
	C472.122345,50.713181 468.370300,50.713181 463.998596,50.713181 
	C463.998596,45.580856 464.117676,40.322529 463.955048,35.072929 
	C463.853790,31.803257 463.460663,28.523542 462.901672,25.299810 
	C462.751923,24.436220 461.639923,23.338484 460.752625,23.072577 
	C456.705475,21.859669 451.037842,26.370802 451.008301,30.690598 
	C450.977570,35.182278 451.001434,39.674332 451.001434,44.568474 
	C452.508698,44.806267 454.030182,45.046310 455.774292,45.321472 
	C455.774292,47.051746 455.774292,48.796040 455.774292,50.772312 
	C450.305389,50.772312 444.889557,50.772312 439.234955,50.772312 
	C439.234955,48.964088 439.234955,47.228397 439.234955,45.133141 
	C440.683319,45.050476 442.103302,44.969433 443.757507,44.875019 
	C443.757507,32.691216 443.757507,20.614122 443.757507,8.146842 
	C442.356659,8.057356 440.948090,7.967376 438.838989,7.832648 
	C439.134003,5.719196 439.413544,3.716356 439.346558,1.356758 
	C442.692902,1.000000 446.385834,1.000000 450.539368,1.000000 
z"/>
<path fill="#FCF4E4" opacity="1.000000" stroke="none" 
	d="
M164.531342,1.000000 
	C165.000000,6.139773 165.000000,11.279546 165.000000,16.787788 
	C163.054413,16.874937 161.317368,16.952744 159.183899,17.048307 
	C159.183899,14.077574 159.183899,11.324423 159.183899,8.286797 
	C152.398148,8.286797 145.988297,8.286797 139.287079,8.286797 
	C139.287079,12.959967 139.287079,17.696917 139.287079,22.851303 
	C144.634583,22.851303 150.051727,22.851303 155.728546,22.851303 
	C155.728546,24.992758 155.728546,26.730076 155.728546,28.866774 
	C150.381149,28.866774 144.958832,28.866774 139.271362,28.866774 
	C139.271362,34.328800 139.271362,39.403236 139.271362,44.884514 
	C140.658813,44.955105 142.069168,45.026863 143.736267,45.111683 
	C143.736267,46.979027 143.736267,48.729031 143.736267,50.741650 
	C138.377777,50.741650 132.956573,50.741650 127.265549,50.741650 
	C127.265549,49.004101 127.265549,47.270355 127.265549,45.231888 
	C128.637604,45.100307 130.061020,44.963802 131.742035,44.802593 
	C131.742035,32.728542 131.742035,20.638237 131.742035,8.208504 
	C130.368881,8.086398 128.959076,7.961034 126.853416,7.773792 
	C127.137703,5.722922 127.415634,3.717927 127.346779,1.356466 
	C139.354233,1.000000 151.708450,1.000000 164.531342,1.000000 
z"/>
<path fill="#000000" opacity="1.000000" stroke="none" 
	d="
M86.531372,1.000001 
	C84.431053,8.431019 81.884346,15.869833 79.283073,23.289516 
	C78.114639,26.622292 76.837112,29.916819 75.191536,34.354805 
	C73.231926,29.066858 71.681259,24.664066 69.972527,20.323500 
	C67.506981,14.060465 64.926712,7.842589 62.697701,1.302722 
	C70.687576,1.000000 78.375153,1.000000 86.531372,1.000001 
z"/>
<path fill="#000000" opacity="1.000000" stroke="none" 
	d="
M833.476685,67.000008 
	C833.292114,66.340179 833.398376,65.402786 833.905090,65.063629 
	C838.701172,61.853344 841.468201,57.950630 841.132446,51.649944 
	C840.631897,42.258049 841.002563,32.819721 841.002563,23.002899 
	C842.570068,23.002899 843.835510,23.002899 845.550537,23.001450 
	C846.000000,37.548992 846.000000,52.097988 846.000000,67.000000 
	C841.991333,67.000000 837.972290,67.000000 833.476685,67.000008 
z"/>
<path fill="#000000" opacity="1.000000" stroke="none" 
	d="
M1.000000,8.468657 
	C2.488139,8.000000 3.976279,8.000000 5.731274,8.000000 
	C5.731274,20.260443 5.731274,32.429546 5.731274,44.998333 
	C4.429531,44.998333 3.164391,44.998333 1.449625,44.999168 
	C1.000000,32.979103 1.000000,20.958210 1.000000,8.468657 
z"/>
<path fill="#000000" opacity="1.000000" stroke="none" 
	d="
M23.571537,1.000000 
	C24.000000,3.138844 24.000000,5.277688 24.000000,7.778597 
	C25.294447,7.916029 26.462868,8.040081 27.631289,8.164133 
	C27.940559,8.558650 28.249830,8.953168 28.559099,9.347685 
	C23.110384,13.671673 17.661669,17.995661 13.205359,21.532097 
	C13.205359,18.517179 13.205359,13.497188 13.205359,8.114561 
	C14.694377,8.114561 16.090240,8.114561 18.220581,8.114561 
	C17.875631,5.697752 17.591309,3.705704 17.653492,1.356828 
	C19.714357,1.000000 21.428717,1.000000 23.571537,1.000000 
z"/>
<path fill="#FBF3E3" opacity="1.000000" stroke="none" 
	d="
M755.555847,1.000000 
	C755.999207,1.996984 755.942505,2.997671 756.008179,3.990256 
	C756.201477,6.911340 756.026611,9.108240 751.986084,9.108946 
	C747.915222,9.109657 747.762390,6.854884 748.025940,3.969819 
	C748.096619,3.197149 748.456299,2.450892 748.341675,1.346256 
	C750.370544,1.000000 752.741150,1.000000 755.555847,1.000000 
z"/>
<path fill="#FBF3E3" opacity="1.000000" stroke="none" 
	d="
M391.555847,1.000000 
	C391.999207,1.996952 391.942505,2.997606 392.008179,3.990158 
	C392.201508,6.911191 392.026764,9.108214 387.986176,9.108952 
	C383.915253,9.109694 383.762451,6.854935 384.025970,3.969854 
	C384.096558,3.197186 384.456268,2.450931 384.341614,1.346275 
	C386.370575,1.000000 388.741119,1.000000 391.555847,1.000000 
z"/>
<path fill="#FBF3E3" opacity="1.000000" stroke="none" 
	d="
M211.555832,1.000000 
	C211.999222,1.996961 211.942535,2.997622 212.008224,3.990184 
	C212.201553,6.911256 212.026703,9.108224 207.986130,9.108951 
	C203.915192,9.109682 203.762451,6.854877 204.025986,3.969822 
	C204.096558,3.197164 204.456314,2.450920 204.341660,1.346274 
	C206.370560,1.000000 208.741104,1.000000 211.555832,1.000000 
z"/>
<path fill="#000000" opacity="1.000000" stroke="none" 
	d="
M572.583374,1.000000 
	C573.000000,2.226881 573.000000,3.453761 573.000000,5.403438 
	C570.687012,3.830418 569.027222,2.701611 567.683716,1.286402 
	C569.388916,1.000000 570.777771,1.000000 572.583374,1.000000 
z"/>
<path fill="#FAF2E2" opacity="1.000000" stroke="none" 
	d="
M321.161133,36.003883 
	C318.869476,36.003883 317.053680,36.003883 315.250885,36.003883 
	C315.043762,44.774731 325.762787,47.618999 333.289185,42.991879 
	C337.796356,40.220928 337.805542,40.235859 341.952911,43.780056 
	C337.834381,53.374454 323.047821,53.575008 316.015564,50.430962 
	C308.335480,46.997269 304.376068,36.196640 307.285797,27.362398 
	C309.971863,19.207281 318.639862,14.343228 328.411102,16.082344 
	C335.391815,17.324785 342.838867,23.668488 341.871674,36.003883 
	C335.172211,36.003883 328.404633,36.003883 321.161133,36.003883 
M331.930176,30.995224 
	C332.345947,30.124903 333.342285,28.991781 333.086029,28.425678 
	C330.957062,23.722519 326.960480,22.294163 322.159058,23.042143 
	C317.944611,23.698679 316.238220,26.908268 314.837280,30.996056 
	C320.532990,30.996056 325.784485,30.996056 331.930176,30.995224 
z"/>
<path fill="#FAF2E2" opacity="1.000000" stroke="none" 
	d="
M237.388123,45.009254 
	C240.956665,44.343857 244.366776,44.228935 247.178284,42.872906 
	C251.903961,40.593651 251.743851,40.261681 255.951019,43.705799 
	C251.864441,53.372486 237.353729,53.568474 230.122986,50.517078 
	C222.544708,47.319031 218.508087,36.424400 221.225143,27.561136 
	C223.748962,19.328270 233.009949,14.132607 242.637421,16.082520 
	C250.087509,17.591434 257.111023,24.737549 255.761963,35.965633 
	C246.954376,35.965633 238.071915,35.965633 228.853409,35.965633 
	C229.665482,41.221817 232.301941,44.028122 237.388123,45.009254 
M239.459137,30.996113 
	C242.217987,30.996113 244.976837,30.996113 247.836319,30.996113 
	C246.201096,25.226374 243.395508,23.118729 238.192810,22.914942 
	C232.699417,22.699772 230.687576,26.231871 228.728165,30.996113 
	C232.336304,30.996113 235.418259,30.996113 239.459137,30.996113 
z"/>
<path fill="#FAF2E2" opacity="1.000000" stroke="none" 
	d="
M627.010498,37.590424 
	C631.087891,29.619888 638.590881,27.632233 647.539001,31.733917 
	C646.650574,21.808496 643.484619,20.425583 634.505005,25.347982 
	C632.589417,26.398094 629.606384,25.501022 625.819519,25.501022 
	C627.330139,23.060804 627.891968,21.746899 628.802246,20.751745 
	C633.190674,15.954149 644.098267,13.988924 649.803223,16.985672 
	C653.041504,18.686729 655.074951,21.234499 655.024414,25.170792 
	C654.943237,31.494520 655.002686,37.820053 655.002686,44.563053 
	C656.500244,44.799843 658.019470,45.040070 659.769775,45.316826 
	C659.769775,47.036648 659.769775,48.781792 659.769775,50.932129 
	C656.015564,50.340904 651.866638,52.441772 647.984314,49.135727 
	C646.510315,49.796532 644.132446,51.578789 641.580444,51.878677 
	C632.146118,52.987324 625.805237,50.434746 627.010498,37.590424 
M641.217041,45.004951 
	C643.642334,43.920322 646.067627,42.835693 648.492920,41.751068 
	C648.422424,41.057995 648.351868,40.364922 648.281311,39.671852 
	C645.681885,38.772026 643.142395,37.525074 640.467346,37.063385 
	C637.372986,36.529312 635.010742,37.594936 634.935303,41.441490 
	C634.852173,45.681507 637.782715,45.009583 641.217041,45.004951 
z"/>
<path fill="#FAF3E2" opacity="1.000000" stroke="none" 
	d="
M585.999268,38.498672 
	C585.664734,31.204405 585.617371,24.572971 591.787537,19.613119 
	C597.716309,14.847228 604.352905,14.707397 610.747009,17.114809 
	C617.255005,19.565094 620.835205,24.681591 621.144958,32.244972 
	C621.455811,39.831902 619.717712,46.171761 612.929260,49.918983 
	C603.580627,55.079391 589.297363,52.381199 585.999268,38.498672 
M597.612671,24.909199 
	C591.447144,31.407516 593.195068,43.246750 600.675415,44.881268 
	C605.228394,45.876137 609.240723,44.686012 611.859009,40.421108 
	C614.193420,36.618782 613.379822,28.817032 610.239746,25.731308 
	C606.606018,22.160460 602.516479,21.900660 597.612671,24.909199 
z"/>
<path fill="#FBF3E3" opacity="1.000000" stroke="none" 
	d="
M490.191895,15.997543 
	C495.528229,16.454611 500.423676,16.911716 505.680420,17.402559 
	C505.680420,20.613741 505.680420,24.156502 505.680420,29.357952 
	C502.851471,27.687891 500.910706,26.169216 498.710358,25.336859 
	C495.911255,24.277973 492.925140,23.614485 489.961029,23.185005 
	C489.446899,23.110518 488.108459,25.050716 488.129700,26.039305 
	C488.149078,26.940186 489.339844,28.298059 490.290253,28.607782 
	C493.331268,29.598780 496.526581,30.102589 499.614655,30.965231 
	C506.772614,32.964806 508.917328,36.392078 508.000153,44.109871 
	C507.443573,48.793610 502.900360,52.150307 496.728638,51.948311 
	C491.312317,51.771034 485.911194,51.129215 480.239624,50.671284 
	C480.239624,47.133415 480.239624,43.359024 480.239624,39.149357 
	C483.196777,39.007004 485.921692,38.114494 487.757538,42.164001 
	C489.195099,45.334980 495.143616,46.255947 498.291779,44.249290 
	C499.219849,43.657730 500.058319,41.863949 499.850189,40.842831 
	C499.631287,39.769054 498.254700,38.455788 497.129089,38.131310 
	C493.730896,37.151733 490.113464,36.897644 486.756958,35.816242 
	C481.335663,34.069626 478.499878,28.892988 480.151062,22.780918 
	C481.342316,18.371220 484.810028,15.799399 490.191895,15.997543 
z"/>
<path fill="#FCF4E4" opacity="1.000000" stroke="none" 
	d="
M779.746887,50.998703 
	C774.643127,51.000374 770.013184,51.000374 765.196411,51.000374 
	C765.196411,49.018974 765.196411,47.405273 765.196411,45.388741 
	C766.527649,45.184444 768.056885,44.949749 769.789673,44.683823 
	C769.789673,37.730324 769.789673,30.776705 769.789673,23.397345 
	C768.480347,23.190338 766.957581,22.949577 765.220215,22.674900 
	C765.220215,20.935389 765.220215,19.193514 765.220215,17.046049 
	C769.342468,17.671560 773.829163,15.416319 777.517212,18.536524 
	C781.146545,17.767467 785.281921,16.480562 789.497925,16.109703 
	C793.994019,15.714212 796.965759,19.079950 796.990662,23.742516 
	C797.027039,30.565670 796.999939,37.389164 796.999939,44.575531 
	C798.551331,44.817329 800.077515,45.055191 801.794189,45.322746 
	C801.794189,47.096222 801.794189,48.838734 801.794189,50.791679 
	C797.919556,50.791679 794.174438,50.791679 789.999451,50.791679 
	C789.999451,46.358307 789.999634,42.073284 789.999390,37.788261 
	C789.999268,35.290295 790.551819,32.624760 789.858643,30.336660 
	C788.986694,27.458557 790.745117,22.310524 784.556030,22.950865 
	C780.013977,23.420797 777.014465,26.514677 777.002808,31.308628 
	C776.992371,35.629719 777.000610,39.950855 777.000610,44.620876 
	C778.603271,44.839447 780.132141,45.047962 782.840210,45.417294 
	C781.848328,47.530071 781.034485,49.263554 779.746887,50.998703 
z"/>
<path fill="#FAF2E2" opacity="1.000000" stroke="none" 
	d="
M424.948669,51.485897 
	C417.408020,52.177464 410.361450,53.069122 404.634735,46.412392 
	C400.833069,41.993336 399.497406,28.696701 403.297089,23.195778 
	C407.768066,16.722979 415.818237,14.423277 423.808289,16.813263 
	C426.418091,17.593908 429.458160,16.936007 432.654388,16.936007 
	C432.654388,21.256342 432.654388,25.446077 432.654388,29.824284 
	C430.662781,29.824284 428.715820,29.824284 426.744904,29.824284 
	C424.268311,23.695671 421.180237,21.833965 415.377777,23.012386 
	C411.397217,23.820795 408.924957,27.969877 408.937286,33.821259 
	C408.954712,42.064678 412.943756,46.044777 420.718231,44.844963 
	C422.831970,44.518757 425.051666,42.624172 426.514740,40.861687 
	C428.748962,38.170269 431.060333,38.780884 432.755829,40.590195 
	C433.566254,41.454998 433.352051,44.492172 432.442841,45.508556 
	C430.435974,47.751972 427.694183,49.338001 424.948669,51.485897 
z"/>
<path fill="#FAF2E2" opacity="1.000000" stroke="none" 
	d="
M697.791077,43.543297 
	C692.880066,51.425591 684.855469,54.422081 676.216370,51.691006 
	C670.582703,49.910038 664.764587,42.856785 664.792358,34.560852 
	C664.820496,26.157724 667.716736,20.173899 675.341980,17.052692 
	C678.211426,15.878140 681.749939,15.954825 684.957397,16.088165 
	C688.827515,16.249054 692.669861,17.076506 696.795471,17.653366 
	C696.795471,21.318581 696.795471,25.412758 696.795471,29.756538 
	C694.643372,29.756538 692.562988,29.756538 690.479126,29.757547 
	C688.580566,23.830938 685.602539,21.982868 679.598206,23.008362 
	C675.851135,23.648333 673.410156,27.660843 672.899597,32.564247 
	C672.114197,40.107399 676.604431,46.634003 684.415771,44.883446 
	C686.575500,44.399429 688.618042,42.680302 690.343384,41.118126 
	C693.899841,37.897869 696.273438,38.449055 697.791077,43.543297 
z"/>
<path fill="#FBF3E3" opacity="1.000000" stroke="none" 
	d="
M172.997696,32.035877 
	C172.997696,28.902531 172.997696,26.260777 172.997696,23.218443 
	C171.301941,23.074169 169.762848,22.943226 168.138367,22.805016 
	C168.138367,20.879484 168.138367,19.249987 168.138367,17.308619 
	C171.487946,17.308619 174.900467,17.308619 178.793747,17.308619 
	C178.901108,18.585669 179.026337,20.075096 179.239075,22.605639 
	C182.810669,16.560858 187.661774,15.219990 193.396210,16.201080 
	C194.828903,23.264570 194.564697,23.803120 187.944534,23.944284 
	C183.790146,24.032869 181.854904,26.819881 181.207413,29.931238 
	C180.219498,34.678337 180.252243,39.637848 179.817078,44.926964 
	C182.389999,44.926964 184.466034,44.926964 186.769363,44.926964 
	C186.769363,47.042488 186.769363,48.778759 186.769363,50.764267 
	C180.664932,50.764267 174.593124,50.764267 168.258316,50.764267 
	C168.258316,49.001156 168.258316,47.270683 168.258316,45.237801 
	C169.627487,45.105186 171.047684,44.967628 172.997696,44.778755 
	C172.997696,40.735435 172.997696,36.631454 172.997696,32.035877 
z"/>
<path fill="#FBF3E3" opacity="1.000000" stroke="none" 
	d="
M349.155334,45.031876 
	C351.472717,45.080303 353.159119,45.352402 353.060852,42.399014 
	C352.851776,36.114784 352.996948,29.818769 352.996948,23.157038 
	C351.351685,23.056025 349.944305,22.969616 348.270142,22.866827 
	C348.270142,21.044991 348.270142,19.297882 348.270142,17.271973 
	C351.587402,17.271973 355.007874,17.271973 358.873444,17.271973 
	C358.953186,18.634544 359.039551,20.110741 359.189117,22.666391 
	C362.896759,16.480747 367.768280,15.252371 373.476501,16.216722 
	C374.657104,23.536287 374.612366,23.732443 367.809784,23.952549 
	C363.656372,24.086939 361.818726,26.937792 361.171387,30.064833 
	C360.213074,34.694012 360.234253,39.525951 359.804382,44.679234 
	C362.128540,44.679234 364.203064,44.679234 366.642700,44.679234 
	C366.642700,46.904335 366.642700,48.753864 366.642700,50.809967 
	C360.542694,50.809967 354.468872,50.809967 347.765656,50.809967 
	C348.100708,48.729885 348.396149,46.895618 349.155334,45.031876 
z"/>
<path fill="#FCF4E4" opacity="1.000000" stroke="none" 
	d="
M212.000122,41.777504 
	C213.272293,43.537853 214.544342,44.821842 215.816376,46.105831 
	C216.142090,45.855438 216.467789,45.605042 216.793503,45.354649 
	C216.793503,47.092880 216.793503,48.831112 216.793503,50.785522 
	C211.277512,50.785522 205.873260,50.785522 200.233688,50.785522 
	C200.233688,48.955517 200.233688,47.224194 200.233688,45.144909 
	C201.677292,45.055878 203.095261,44.968426 204.753784,44.866138 
	C204.753784,37.719318 204.753784,30.650347 204.753784,23.251894 
	C203.399475,23.115618 201.995911,22.974382 200.192001,22.792864 
	C200.117371,21.102045 200.040039,19.350206 199.949280,17.294548 
	C203.855316,17.294548 207.601273,17.294548 212.000000,17.294548 
	C212.000000,25.184542 212.000000,33.242844 212.000122,41.777504 
z"/>
<path fill="#FCF4E4" opacity="1.000000" stroke="none" 
	d="
M755.882996,51.000000 
	C751.772827,51.000000 748.146484,51.000000 744.261841,51.000000 
	C744.261841,49.014305 744.261841,47.283890 744.261841,45.236034 
	C745.625061,45.108639 747.044861,44.975956 748.732788,44.818218 
	C748.732788,37.780525 748.732788,30.711660 748.732788,23.225124 
	C747.325439,23.096430 745.797485,22.956705 744.150696,22.806112 
	C744.150696,20.902454 744.150696,19.275841 744.150696,17.324078 
	C747.809875,17.324078 751.551453,17.324078 755.685913,17.324078 
	C755.685913,26.112446 755.685913,35.154564 755.685913,44.525497 
	C757.530273,44.814285 759.049805,45.052223 760.780151,45.323154 
	C760.780151,47.064476 760.780151,48.804279 760.780151,51.000000 
	C759.266479,51.000000 757.816650,51.000000 755.882996,51.000000 
z"/>
<path fill="#FCF4E4" opacity="1.000000" stroke="none" 
	d="
M385.000000,30.079599 
	C385.000000,27.614477 385.000000,25.637308 385.000000,23.284725 
	C383.339478,23.110308 381.806671,22.949305 380.159607,22.776299 
	C380.159607,20.924212 380.159607,19.299986 380.159607,17.337257 
	C383.800446,17.337257 387.536194,17.337257 391.666931,17.337257 
	C391.666931,26.092409 391.666931,35.132797 391.666931,44.520172 
	C393.508484,44.808693 395.026123,45.046467 396.769928,45.319672 
	C396.769928,47.043259 396.769928,48.784382 396.769928,50.764290 
	C391.335571,50.764290 385.932343,50.764290 380.263184,50.764290 
	C380.263184,49.005962 380.263184,47.277473 380.263184,45.232998 
	C381.621063,45.108768 383.038971,44.979042 385.000000,44.799633 
	C385.000000,40.091717 385.000000,35.329636 385.000000,30.079599 
z"/>
<path fill="#000000" opacity="1.000000" stroke="none" 
	d="
M817.877319,24.622364 
	C822.481995,22.230856 826.598267,22.004543 830.265930,25.726954 
	C833.748169,29.261065 834.381653,34.461273 832.158875,39.405071 
	C829.998779,44.209507 825.961182,46.152393 821.418945,44.761246 
	C818.611938,43.901543 815.159546,41.023457 814.441467,38.385933 
	C813.204041,33.841091 812.799561,28.501863 817.877319,24.622364 
z"/>
<path fill="#000000" opacity="1.000000" stroke="none" 
	d="
M832.607666,49.420967 
	C832.804932,48.877769 833.164490,48.577026 833.524048,48.276299 
	C833.575806,48.819214 833.627502,49.362118 833.405640,50.012962 
	C833.011414,49.968407 832.890686,49.815914 832.607666,49.420967 
z"/>
<path fill="#000000" opacity="1.000000" stroke="none" 
	d="
M273.280975,42.844219 
	C268.583588,37.134148 268.728912,29.740549 273.090637,25.348869 
	C276.094818,22.324080 279.608185,22.260212 283.074982,23.614775 
	C286.573822,24.981871 288.660492,27.663982 289.076660,31.762234 
	C290.139008,42.223595 283.757690,46.041798 277.331665,44.941921 
	C276.017761,44.717041 274.833435,43.735016 273.280975,42.844219 
z"/>
<path fill="#000000" opacity="1.000000" stroke="none" 
	d="
M331.483063,30.995640 
	C325.784485,30.996056 320.532990,30.996056 314.837280,30.996056 
	C316.238220,26.908268 317.944611,23.698679 322.159058,23.042143 
	C326.960480,22.294163 330.957062,23.722519 333.086029,28.425678 
	C333.342285,28.991781 332.345947,30.124903 331.483063,30.995640 
z"/>
<path fill="#000000" opacity="1.000000" stroke="none" 
	d="
M238.979675,30.996113 
	C235.418259,30.996113 232.336304,30.996113 228.728165,30.996113 
	C230.687576,26.231871 232.699417,22.699772 238.192810,22.914942 
	C243.395508,23.118729 246.201096,25.226374 247.836319,30.996113 
	C244.976837,30.996113 242.217987,30.996113 238.979675,30.996113 
z"/>
<path fill="#000000" opacity="1.000000" stroke="none" 
	d="
M640.790710,45.015099 
	C637.782715,45.009583 634.852173,45.681507 634.935303,41.441490 
	C635.010742,37.594936 637.372986,36.529312 640.467346,37.063385 
	C643.142395,37.525074 645.681885,38.772026 648.281311,39.671852 
	C648.351868,40.364922 648.422424,41.057995 648.492920,41.751068 
	C646.067627,42.835693 643.642334,43.920322 640.790710,45.015099 
z"/>
<path fill="#000000" opacity="1.000000" stroke="none" 
	d="
M597.877441,24.600880 
	C602.516479,21.900660 606.606018,22.160460 610.239746,25.731308 
	C613.379822,28.817032 614.193420,36.618782 611.859009,40.421108 
	C609.240723,44.686012 605.228394,45.876137 600.675415,44.881268 
	C593.195068,43.246750 591.447144,31.407516 597.877441,24.600880 
z"/>
</svg>